<svg width="1440" height="962" viewBox="0 0 1440 962" fill="none" xmlns="http://www.w3.org/2000/svg">
<path opacity="0.3" d="M46.9555 738.064L44.8457 737.592C55.8912 687.54 77.585 652.243 107.519 635.55C129.859 623.13 156.79 621.267 183.125 630.582C196.759 635.689 210.122 641.493 223.162 647.97C260.394 665.681 298.991 683.963 335.776 663.57C367.895 645.809 395.645 600.179 422.501 556.063C451.939 507.65 482.42 457.598 518.783 444.483C558.299 430.25 597.119 461.871 634.649 492.498C670.714 521.933 708.045 552.362 745.525 541.457C795.565 526.926 834.609 444.011 872.362 363.828C911.729 280.441 952.187 194.446 1005.4 185.503C1031.27 181.206 1056.96 196.433 1081.78 211.188C1108.51 227.06 1136.14 243.479 1163.39 234.636C1180.77 228.998 1197.4 213.175 1213.51 197.898C1229.61 182.622 1246.24 166.824 1263.84 160.862C1296.11 149.908 1332 172.239 1364.87 223.732C1394.06 269.462 1417.41 330.866 1440 390.158L1437.99 390.928C1415.43 331.636 1392.12 270.331 1363.05 224.8C1330.79 174.226 1295.79 152.218 1264.54 162.7C1247.39 168.513 1230.91 184.137 1214.9 199.264C1198.61 214.715 1181.78 230.687 1163.96 236.524C1135.79 245.69 1107.72 229.072 1080.56 212.877C1056.09 198.321 1030.75 183.268 1005.65 187.466C953.528 196.11 913.268 281.683 874.298 364.449C836.346 445.054 797.079 528.392 746.096 543.295C707.524 554.523 669.771 523.697 633.234 493.914C596.201 463.684 557.877 432.436 519.503 446.271C483.835 459.138 453.578 508.843 424.313 556.932C397.333 601.296 369.409 647.175 336.794 665.234C299.04 686.149 259.972 667.718 222.194 649.684C209.261 643.251 196.005 637.488 182.48 632.421C156.74 623.379 130.529 625.118 108.661 637.389C79.1983 653.832 57.8769 688.757 46.9555 738.064Z" fill="#D3D6E3"/>
<path opacity="0.3" d="M2.11664 667.592L0 666.903C24.2266 594.87 91.653 582.852 142.019 594.487C155.688 597.626 169.637 601.963 183.102 606.174C221.354 618.115 261.163 630.491 299.134 616.686C332.108 604.694 360.619 573.946 388.186 544.194C418.457 511.533 449.773 477.851 487.107 468.921C527.527 459.352 567.335 480.658 605.843 501.276C642.973 521.153 681.353 541.719 720.039 534.447C771.502 524.623 811.59 468.717 850.378 414.673C890.671 358.537 932.341 300.385 986.914 294.439C1013.39 291.556 1039.7 301.814 1065.18 311.739C1092.7 322.482 1121.16 333.582 1149.33 327.56C1167.19 323.758 1184.32 313.092 1200.87 302.783C1217.42 292.475 1234.48 281.809 1252.54 277.803C1285.69 270.479 1322.34 285.458 1356.08 320.236C1386.09 351.111 1410.11 392.55 1433.35 432.509L1431.41 433.606C1408.25 393.647 1384.31 352.336 1354.47 321.64C1321.32 287.524 1285.26 272.674 1253.02 279.844C1235.35 283.773 1218.42 294.337 1202.02 304.544C1185.62 314.75 1168.03 325.722 1149.77 329.626C1120.98 335.776 1092.19 324.523 1064.36 313.704C1039.14 303.855 1013.08 293.699 987.169 296.532C933.616 302.375 892.176 360.068 852.164 415.847C813.146 470.248 772.802 526.511 720.447 536.488C680.996 544.016 642.259 523.271 604.797 503.317C566.545 482.904 527.247 461.802 487.617 471.166C450.946 479.842 419.859 513.37 389.818 545.776C362.124 575.63 333.383 606.607 299.874 618.779C261.214 632.838 221.176 620.361 182.566 608.292C169.127 604.107 155.229 599.769 141.636 596.656C92.061 585.25 25.8587 596.988 2.11664 667.592Z" fill="#D3D6E3"/>
<path d="M163.913 494.61H162.474V651.274H163.913V494.61Z" fill="url(#paint0_linear_3062_120425)"/>
<g opacity="0.3">
<path d="M163.913 346.987H162.474V864.027H163.913V346.987Z" fill="#D3D6E3"/>
<path d="M1346.15 40.8862H1344.71V672.587H1346.15V40.8862Z" fill="#D3D6E3"/>
<path d="M1311.38 206.816H1309.94V448.656H1311.38V206.816Z" fill="#D3D6E3"/>
<path d="M1276.6 147.747H1275.16V485.494H1276.6V147.747Z" fill="#D3D6E3"/>
<path d="M1241.83 86.2188H1240.39V559.466H1241.83V86.2188Z" fill="#D3D6E3"/>
<path d="M1207.08 219.161H1205.64V519.375H1207.08V219.161Z" fill="#D3D6E3"/>
<path d="M1172.3 96.2539H1170.86V621.615H1172.3V96.2539Z" fill="#D3D6E3"/>
<path d="M1137.53 273.561H1136.09V429.927H1137.53V273.561Z" fill="#D3D6E3"/>
<path d="M1102.75 221.024H1101.31V436.808H1102.75V221.024Z" fill="#D3D6E3"/>
<path d="M1067.98 103.234H1066.54V534.776H1067.98V103.234Z" fill="#D3D6E3"/>
<path d="M1033.2 95.6084H1031.76V495.877H1033.2V95.6084Z" fill="#D3D6E3"/>
<path d="M998.429 82.145H996.989V544.96H998.429V82.145Z" fill="#D3D6E3"/>
<path d="M963.655 0H962.215V575.414H963.655V0Z" fill="#D3D6E3"/>
<path d="M928.906 66.5708H927.467V543.47H928.906V66.5708Z" fill="#D3D6E3"/>
<path d="M894.131 215.535H892.691V478.215H894.131V215.535Z" fill="#D3D6E3"/>
<path d="M859.357 134.582H857.917V519.226H859.357V134.582Z" fill="#D3D6E3"/>
<path d="M824.582 14.3076H823.143V689.776H824.582V14.3076Z" fill="#D3D6E3"/>
<path d="M789.862 66.5024H788.911V909.591H789.862V66.5024Z" fill="#D3D6E3"/>
<path d="M720.258 272.815H718.818V848.229H720.258V272.815Z" fill="#D3D6E3"/>
<path d="M685.483 192.906H684.043V868.374H685.483V192.906Z" fill="#D3D6E3"/>
<path d="M650.733 177.704H649.293V796.885H650.733V177.704Z" fill="#D3D6E3"/>
<path d="M615.959 161.906H614.52V837.374H615.959V161.906Z" fill="#D3D6E3"/>
<path d="M581.184 289.979H579.744V586.02H581.184V289.979Z" fill="#D3D6E3"/>
<path d="M546.409 148.467H544.97V780.168H546.409V148.467Z" fill="#D3D6E3"/>
<path d="M511.635 367.803H510.195V649.262H511.635V367.803Z" fill="#D3D6E3"/>
<path d="M476.86 265.165H475.42V803.045H476.86V265.165Z" fill="#D3D6E3"/>
<path d="M442.085 161.384H440.646V961.946H442.085V161.384Z" fill="#D3D6E3"/>
<path d="M407.311 346.987H405.871V864.027H407.311V346.987Z" fill="#D3D6E3"/>
<path d="M372.561 524.542H371.121V716.354H372.561V524.542Z" fill="#D3D6E3"/>
<path d="M337.426 299.75H336.476V698.007H337.426V299.75Z" fill="#D3D6E3"/>
<path d="M302.998 391.549H301.572V783.496H302.998V391.549Z" fill="#D3D6E3"/>
<path d="M268.039 225.612H267.089V888.107H268.039V225.612Z" fill="#D3D6E3"/>
<path d="M233.347 245.572H231.921V957.493H233.347V245.572Z" fill="#D3D6E3"/>
<path d="M198.688 334.741H197.248V851.781H198.688V334.741Z" fill="#D3D6E3"/>
<path d="M755.032 250.857H753.593V686.77H755.032V250.857Z" fill="#D3D6E3"/>
</g>
<path d="M337.786 404.714H336.347V753.44H337.786V404.714Z" fill="url(#paint1_linear_3062_120425)"/>
<g opacity="0.1">
<path opacity="0.5" d="M170.417 527.174H155.971V683.839H170.417V527.174Z" fill="#D3D6E3"/>
<path d="M1352.65 261.016H1338.21V452.431H1352.65V261.016Z" fill="#D3D6E3"/>
<path d="M1283.1 265.438H1268.66V367.777H1283.1V265.438Z" fill="#D3D6E3"/>
<path d="M1248.36 251.13H1233.91V394.53H1248.36V251.13Z" fill="#D3D6E3"/>
<path d="M1178.81 279.323H1164.36V438.521H1178.81V279.323Z" fill="#D3D6E3"/>
<path d="M1074.48 253.614H1060.04V384.395H1074.48V253.614Z" fill="#D3D6E3"/>
<path d="M1039.71 235.108H1025.26V356.401H1039.71V235.108Z" fill="#D3D6E3"/>
<path d="M1004.93 243.43H990.486V383.675H1004.93V243.43Z" fill="#D3D6E3"/>
<path d="M970.183 200.531H955.737V374.907H970.183V200.531Z" fill="#D3D6E3"/>
<path d="M935.409 232.749H920.963V377.266H935.409V232.749Z" fill="#D3D6E3"/>
<path d="M865.86 268.617H851.414V385.165H865.86V268.617Z" fill="#D3D6E3"/>
<path d="M831.085 249.689H816.639V454.369H831.085V249.689Z" fill="#D3D6E3"/>
<path d="M796.31 241.417H781.864V552.238H796.31V241.417Z" fill="#D3D6E3"/>
<path d="M761.536 283.397H747.09V719.31H761.536V283.397Z" fill="#D3D6E3"/>
<path d="M726.76 473.322H712.314V647.697H726.76V473.322Z" fill="#D3D6E3"/>
<path d="M692.011 428.312H677.565V632.992H692.011V428.312Z" fill="#D3D6E3"/>
<path d="M657.236 393.462H642.79V581.102H657.236V393.462Z" fill="#D3D6E3"/>
<path d="M622.463 397.287H608.017V601.967H622.463V397.287Z" fill="#D3D6E3"/>
<path d="M552.913 368.597H538.467V560.013H552.913V368.597Z" fill="#D3D6E3"/>
<path d="M483.363 452.605H468.917V615.604H483.363V452.605Z" fill="#D3D6E3"/>
<path d="M448.589 440.359H434.143V682.945H448.589V440.359Z" fill="#D3D6E3"/>
<path d="M413.839 527.174H399.393V683.839H413.839V527.174Z" fill="#D3D6E3"/>
<path d="M344.29 437.254H329.844V785.98H344.29V437.254Z" fill="#D3D6E3"/>
<path d="M309.515 528.118H295.069V646.877H309.515V528.118Z" fill="#D3D6E3"/>
<path d="M274.741 498.981H260.295V736.524H274.741V498.981Z" fill="#D3D6E3"/>
<path d="M239.966 521.834H225.521V761.911H239.966V521.834Z" fill="#D3D6E3"/>
<path d="M205.191 514.904H190.745V671.568H205.191V514.904Z" fill="#D3D6E3"/>
<path d="M1317.88 284.067H1303.43V306.274H1317.88V284.067Z" fill="#D3D6E3"/>
<path d="M1213.58 322.942H1199.13V350.514H1213.58V322.942Z" fill="#D3D6E3"/>
<path d="M1144.03 312.012H1129.59V326.37H1144.03V312.012Z" fill="#D3D6E3"/>
<path d="M1109.26 286.477H1094.81V306.299H1109.26V286.477Z" fill="#D3D6E3"/>
<path d="M900.634 302.25H886.188V326.369H900.634V302.25Z" fill="#D3D6E3"/>
<path d="M587.687 391.847H573.241V419.022H587.687V391.847Z" fill="#D3D6E3"/>
<path d="M518.138 463.063H503.692V488.896H518.138V463.063Z" fill="#D3D6E3"/>
<path d="M379.064 579.09H364.618V596.701H379.064V579.09Z" fill="#D3D6E3"/>
</g>
<g opacity="0.2">
<path d="M1317.88 291.072H1303.43V364.35H1317.88V291.072Z" fill="#D3D6E3"/>
<path d="M1213.58 323.787H1199.13V414.75H1213.58V323.787Z" fill="#D3D6E3"/>
<path d="M1144.03 328.059H1129.59V375.429H1144.03V328.059Z" fill="#D3D6E3"/>
<path d="M1109.26 296.214H1094.81V361.593H1109.26V296.214Z" fill="#D3D6E3"/>
<path d="M900.634 307.069H886.188V386.681H900.634V307.069Z" fill="#D3D6E3"/>
<path d="M587.687 393.139H573.241V482.86H587.687V393.139Z" fill="#D3D6E3"/>
<path d="M518.138 465.895H503.692V551.17H518.138V465.895Z" fill="#D3D6E3"/>
<path d="M379.064 591.386H364.618V649.511H379.064V591.386Z" fill="#D3D6E3"/>
<path d="M170.417 549.208H155.971V596.676H170.417V549.208Z" fill="#D3D6E3"/>
<path d="M1387.43 332.133H1372.98V413.682H1387.43V332.133Z" fill="#D3D6E3"/>
<path d="M1352.65 295.171H1338.21V353.172H1352.65V295.171Z" fill="#D3D6E3"/>
<path d="M1283.1 268.568H1268.66V299.593H1283.1V268.568Z" fill="#D3D6E3"/>
<path d="M1248.36 268.568H1233.91V312.037H1248.36V268.568Z" fill="#D3D6E3"/>
<path d="M1178.81 302.25H1164.36V350.489H1178.81V302.25Z" fill="#D3D6E3"/>
<path d="M1074.48 266.655H1060.04V306.274H1074.48V266.655Z" fill="#D3D6E3"/>
<path d="M1039.71 244.821H1025.26V281.584H1039.71V244.821Z" fill="#D3D6E3"/>
<path d="M1004.93 259.75H990.486V302.25H1004.93V259.75Z" fill="#D3D6E3"/>
<path d="M970.183 228.75H955.737V281.584H970.183V228.75Z" fill="#D3D6E3"/>
<path d="M935.409 250.559H920.963V294.351H935.409V250.559Z" fill="#D3D6E3"/>
<path d="M865.86 276.69H851.414V312.013H865.86V276.69Z" fill="#D3D6E3"/>
<path d="M831.085 288.464H816.639V350.489H831.085V288.464Z" fill="#D3D6E3"/>
<path d="M796.31 317.204H781.864V411.397H796.31V317.204Z" fill="#D3D6E3"/>
<path d="M761.536 402.777H747.09V534.875H761.536V402.777Z" fill="#D3D6E3"/>
<path d="M726.76 501.54H712.314V554.374H726.76V501.54Z" fill="#D3D6E3"/>
<path d="M692.011 467.087H677.565V529.112H692.011V467.087Z" fill="#D3D6E3"/>
<path d="M657.236 426.3H642.79V483.159H657.236V426.3Z" fill="#D3D6E3"/>
<path d="M622.463 436.087H608.017V498.112H622.463V436.087Z" fill="#D3D6E3"/>
<path d="M552.913 402.777H538.467V460.778H552.913V402.777Z" fill="#D3D6E3"/>
<path d="M483.363 476.849H468.917V526.231H483.363V476.849Z" fill="#D3D6E3"/>
<path d="M448.589 492.349H434.143V565.85H448.589V492.349Z" fill="#D3D6E3"/>
<path d="M413.839 549.208H399.393V596.676H413.839V549.208Z" fill="#D3D6E3"/>
<path d="M344.29 526.255H329.844V631.924H344.29V526.255Z" fill="#D3D6E3"/>
<path d="M309.515 536.961H295.069V572.954H309.515V536.961Z" fill="#D3D6E3"/>
<path d="M274.741 549.208H260.295V621.193H274.741V549.208Z" fill="#D3D6E3"/>
<path d="M239.966 572.955H225.521V645.71H239.966V572.955Z" fill="#D3D6E3"/>
<path d="M205.191 536.961H190.745V584.43H205.191V536.961Z" fill="#D3D6E3"/>
</g>
<defs>
<linearGradient id="paint0_linear_3062_120425" x1="163.193" y1="494.61" x2="163.193" y2="651.274" gradientUnits="userSpaceOnUse">
<stop stop-color="#BFC3C8" stop-opacity="0.23"/>
<stop offset="1" stop-color="#CCD9E0" stop-opacity="0"/>
</linearGradient>
<linearGradient id="paint1_linear_3062_120425" x1="337.066" y1="404.714" x2="337.066" y2="753.44" gradientUnits="userSpaceOnUse">
<stop stop-color="#BFC3C8" stop-opacity="0.23"/>
<stop offset="1" stop-color="#CCD9E0" stop-opacity="0"/>
</linearGradient>
</defs>
</svg>
