<svg width="1442" height="218" viewBox="0 0 1442 218" fill="none" xmlns="http://www.w3.org/2000/svg">
<path d="M3.5 51L1 45V218H1441V44.5L1438.5 50.5L1432.5 45L1431 47L1427.5 29.5L1424 37L1420.5 25.5H1418L1417 30L1411.5 14L1409 21L1406.5 19L1405.5 21L1402.5 11L1400.5 19.5L1398.5 18L1394.5 25.5L1393 23L1389.5 29.5L1388 28L1380.5 45L1371.5 35L1367 46.5L1361 45L1359 48L1357.5 44H1354.5V42.5L1352 44L1350.5 34.5L1348.5 37L1347 33.5L1345 35L1341.5 33.5L1339 37L1335.5 18L1328.5 26L1326.5 38.5H1324.5L1322.5 41L1319.5 31L1315.5 38.5V36L1310.5 34.5L1309 38.5L1306.5 35L1305 38.5L1303.5 34.5L1300 33.5L1297.5 37L1294 35L1290.5 38.5L1286 50.5L1282 45L1278 63.5L1275.5 61.5L1272 73.5L1271 71L1268.5 74.5L1267.5 70L1258 95L1257 90L1252 87.5L1249.5 82L1247.5 87.5L1245.5 84.5L1243 89L1242.5 85.5L1238 94L1235 90L1231.5 74.5L1226 87.5H1224L1220.5 90.5H1218L1217 86.5L1207.5 90.5L1206 95.5L1204 94.5L1202 95.5L1200.5 100.5L1199 96L1197.5 100.5L1195.5 101.5L1193.5 94.5L1189.5 91.5L1188 88.5L1186 91.5L1183 79L1179.5 84.5L1177.5 82.5H1174.5V80.5H1172L1170.5 76L1168.5 83.5H1166.5L1163 89L1161 84.5L1156 89L1150.5 78L1148.5 80.5L1144.5 74.5L1142.5 66.5L1141 68.5L1140 66L1137.5 69.5L1136 67.5L1130 55L1127 65L1123.5 55L1120.5 58L1118 55L1112.5 66L1109.5 59L1107 58.5L1103 68.5L1099.5 69.5L1097 66L1091.5 76L1087.5 73.5L1086 78.5L1083 79L1080.5 76.5L1074.5 88.5L1073 85.5L1070.5 87.5L1069.5 83L1062.5 89.5L1060.5 85.5L1057 89.5L1050 86.5L1040 89.5L1037 85.5L1035.5 87.5L1026 77H1023L1021 83H1019L1012 73L1010 74.5L1003 68L1000.5 68.5L995.5 61L993.5 63.5L992 59L988 66L986.5 62L983 66L979 63.5L978 66L974.5 63.5L970 68L968 66L965.5 71L963 68.5L958 74.5H952.5L951 80.5L949 79.5L947 80.5L943.5 77L939.5 84.5L935 79.5L933 80.5L929 71L924 77L920 66L913.5 64.5L911 68.5L909 64.5L908 68.5H905.5L904 72L898 56L894.5 57L893.5 53.5L886 60.5L882.5 39.5L880.5 41.5L879 38.5L877 48L875 39.5L871.5 43.5L867.5 29.5L863.5 34.5L862.5 30.5L861 32.5L857 29.5L851.5 46.5L844.5 30.5L841.5 33.5L837 29.5L832 41.5L828.5 36.5L827 42.5L824.5 41.5L822.5 43.5L821 41.5L819 43.5L817.5 38.5L808.5 51.5L805 49.5L799.5 59L795.5 60.5L794 59.5L792.5 65L790.5 66L789 59L786.5 62.5L785 56.5L783 59L781.5 56.5L777.5 42.5L774 46.5L771 38L769 38.5L765 34.5L761.5 39.5L760 32.5L758 35.5H756.5L754.5 37L751 35.5L749 28L746 37L740 33.5L736 34.5L734 40.5L733.5 38L729 42.5L727.5 40.5L725.5 44L723.5 41.5L720 49L718.5 41L716.5 44L715 40.5L712.5 42.5L709 38.5L707.5 41L706 34.5H704L702 33.5L700 35.5H698L696.5 37L692.5 28L691.5 36L689.5 35.5L687.5 37L685.5 35.5L683.5 36L681.5 32L680 39.5L676.5 34.5L672.5 38.5L671 38L667.5 46.5L663.5 42.5L661 56L658.5 59L656.5 57L655 63L653.5 59L651.5 66L649.5 64.5L648.5 59L646 60.5L642.5 58L636.5 49.5L634 51.5L631.5 40.5L628 38.5H624.5L622.5 43L620.5 41.5L619 44L617 41.5L615.5 43L613.5 36L610 41.5L606 37L605 29.5L601 33.5L597 30.5L590.5 46.5L585 29.5L581.5 33L579.5 30.5L577.5 34.5L574.5 30.5L571 44L567 38.5L564.5 48L563 38.5L561.5 41.5L560 40.5L556 60L549 53L547.5 56.5L545 55.5L543 57.5L539.5 70.5L537.5 71.5L536 68.5H534L533 64.5L531 69L529 65.5L522 66L517.5 77.5L514.5 71.5H512.5L509 80.5L507.5 79L502 84.5L498.5 77.5L494.5 80L491 80.5L489.5 74.5H484L478.5 68.5L477 70.5L473.5 66L472 67.5L468 63.5L464.5 65.5L462 63.5L459 65.5L455 62L453.5 65.5L449.5 59L447 62L446 61L441.5 68.5L438.5 67.5L435 70.5L433.5 74.5L432 75L430 73L428 76L424.5 78L423.5 83H421L419 77H415.5L414 80.5L410.5 81.5L406.5 87L405 85L402.5 86L401.5 90L400 88L397.5 88.5L392.5 86L390.5 88L388.5 87L385 89.5L381.5 87L379.5 89.5L373 83L371 87L369 86L367 88.5L361.5 78L360 77L358.5 79L354.5 75L353 74L351 75.5L345.5 66.5L343.5 66L342 70L340.5 68.5H338L335 58.5H332.5L329.5 66L324 55L322.5 57.5H320L318 55.5L314.5 64.5L311.5 55.5L306 67L303.5 68.5L302 66.5L300 68.5L299 66.5L297.5 75L293 80.5L291 78L286 89L280.5 84.5L279 89L277 88.5L275 84H273.5L271.5 77L270 80H268.5L266.5 82.5L264 82L262.5 85L261 81.5L259 79L257 91L255 92L254 88.5L252.5 92L248 94L247 101.5L244.5 100.5L243 96.5L241.5 100.5L240 96L238 94.5L236 95.5L234 91L228.5 88.5L225 87L223 90L221.5 91L218 87L215.5 88L213 79L210.5 74L207 90L205 91L203 94L199.5 85L198 88.5L196.5 84.5L194.5 88L192.5 82L191 86.5L189 88H187L185 90L184 95.5L176.5 73.5L175 70L172.5 74L171 71L169.5 73.5L168 65L166 61.5L164 63.5L160 46L156.5 51L151.5 39L147.5 34.5L144 37.5L142 33.5L138.5 34.5L137 38L135 35.5L133 38L131.5 35.5H127.5L125.5 39L122.5 31.5L118.5 41L116.5 39H115L113.5 26.5H111.5L106 18L104 23.5L102.5 38L101 34.5L97 35.5L95.5 34.5L93.5 38L91.5 34.5L90 43.5L88 42.5L86 45L84 43.5L82.5 49L81 45L76 46L74 39L71.5 38L70 34.5L68.5 37H66.5L61 46L54.5 27.5L52.5 29L49 23.5L47 25.5L45.5 20L43 18L41.5 19L39 11L36.5 21L34.5 19L32.5 21L31 14L25 30.5L23.5 25.5H22L18 37L14.5 29L11 47L9 45L5.5 47L3.5 51Z" fill="url(#paint0_linear_2777_106871)"/>
<path d="M1 45L3.5 51L5.5 47L9 45L11 47L14.5 29L18 37L22 25.5H23.5L25 30.5L31 14L32.5 21L34.5 19L36.5 21L39 11L41.5 19L43 18L45.5 20L47 25.5L49 23.5L52.5 29L54.5 27.5L61 46L66.5 37H68.5L70 34.5L71.5 38L74 39L76 46L81 45L82.5 49L84 43.5L86 45L88 42.5L90 43.5L91.5 34.5L93.5 38L95.5 34.5L97 35.5L101 34.5L102.5 38L104 23.5L106 18L111.5 26.5H113.5L115 39H116.5L118.5 41L122.5 31.5L125.5 39L127.5 35.5H131.5L133 38L135 35.5L137 38L138.5 34.5L142 33.5L144 37.5L147.5 34.5L151.5 39L156.5 51L160 46L164 63.5L166 61.5L168 65L169.5 73.5L171 71L172.5 74L175 70L176.5 73.5L184 95.5L185 90L187 88H189L191 86.5L192.5 82L194.5 88L196.5 84.5L198 88.5L199.5 85L203 94L205 91L207 90L210.5 74L213 79L215.5 88L218 87L221.5 91L223 90L225 87L228.5 88.5L234 91L236 95.5L238 94.5L240 96L241.5 100.5L243 96.5L244.5 100.5L247 101.5L248 94L252.5 92L254 88.5L255 92L257 91L259 79L261 81.5L262.5 85L264 82L266.5 82.5L268.5 80H270L271.5 77L273.5 84H275L277 88.5L279 89L280.5 84.5L286 89L291 78L293 80.5L297.5 75L299 66.5L300 68.5L302 66.5L303.5 68.5L306 67L311.5 55.5L314.5 64.5L318 55.5L320 57.5H322.5L324 55L329.5 66L332.5 58.5H335L338 68.5H340.5L342 70L343.5 66L345.5 66.5L351 75.5L353 74L354.5 75L358.5 79L360 77L361.5 78L367 88.5L369 86L371 87L373 83L379.5 89.5L381.5 87L385 89.5L388.5 87L390.5 88L392.5 86L397.5 88.5L400 88L401.5 90L402.5 86L405 85L406.5 87L410.5 81.5L414 80.5L415.5 77H419L421 83H423.5L424.5 78L428 76L430 73L432 75L433.5 74.5L435 70.5L438.5 67.5L441.5 68.5L446 61L447 62L449.5 59L453.5 65.5L455 62L459 65.5L462 63.5L464.5 65.5L468 63.5L472 67.5L473.5 66L477 70.5L478.5 68.5L484 74.5H489.5L491 80.5L494.5 80L498.5 77.5L502 84.5L507.5 79L509 80.5L512.5 71.5H514.5L517.5 77.5L522 66L529 65.5L531 69L533 64.5L534 68.5H536L537.5 71.5L539.5 70.5L543 57.5L545 55.5L547.5 56.5L549 53L556 60L560 40.5L561.5 41.5L563 38.5L564.5 48L567 38.5L571 44L574.5 30.5L577.5 34.5L579.5 30.5L581.5 33L585 29.5L590.5 46.5L597 30.5L601 33.5L605 29.5L606 37L610 41.5L613.5 36L615.5 43L617 41.5L619 44L620.5 41.5L622.5 43L624.5 38.5H628L631.5 40.5L634 51.5L636.5 49.5L642.5 58L646 60.5L648.5 59L649.5 64.5L651.5 66L653.5 59L655 63L656.5 57L658.5 59L661 56L663.5 42.5L667.5 46.5L671 38L672.5 38.5L676.5 34.5L680 39.5L681.5 32L683.5 36L685.5 35.5L687.5 37L689.5 35.5L691.5 36L692.5 28L696.5 37L698 35.5H700L702 33.5L704 34.5H706L707.5 41L709 38.5L712.5 42.5L715 40.5L716.5 44L718.5 41L720 49L723.5 41.5L725.5 44L727.5 40.5L729 42.5L733.5 38L734 40.5L736 34.5L740 33.5L746 37L749 28L751 35.5L754.5 37L756.5 35.5H758L760 32.5L761.5 39.5L765 34.5L769 38.5L771 38L774 46.5L777.5 42.5L781.5 56.5L783 59L785 56.5L786.5 62.5L789 59L790.5 66L792.5 65L794 59.5L795.5 60.5L799.5 59L805 49.5L808.5 51.5L817.5 38.5L819 43.5L821 41.5L822.5 43.5L824.5 41.5L827 42.5L828.5 36.5L832 41.5L837 29.5L841.5 33.5L844.5 30.5L851.5 46.5L857 29.5L861 32.5L862.5 30.5L863.5 34.5L867.5 29.5L871.5 43.5L875 39.5L877 48L879 38.5L880.5 41.5L882.5 39.5L886 60.5L893.5 53.5L894.5 57L898 56L904 72L905.5 68.5H908L909 64.5L911 68.5L913.5 64.5L920 66L924 77L929 71L933 80.5L935 79.5L939.5 84.5L943.5 77L947 80.5L949 79.5L951 80.5L952.5 74.5H958L963 68.5L965.5 71L968 66L970 68L974.5 63.5L978 66L979 63.5L983 66L986.5 62L988 66L992 59L993.5 63.5L995.5 61L1000.5 68.5L1003 68L1010 74.5L1012 73L1019 83H1021L1023 77H1026L1035.5 87.5L1037 85.5L1040 89.5L1050 86.5L1057 89.5L1060.5 85.5L1062.5 89.5L1069.5 83L1070.5 87.5L1073 85.5L1074.5 88.5L1080.5 76.5L1083 79L1086 78.5L1087.5 73.5L1091.5 76L1097 66L1099.5 69.5L1103 68.5L1107 58.5L1109.5 59L1112.5 66L1118 55L1120.5 58L1123.5 55L1127 65L1130 55L1136 67.5L1137.5 69.5L1140 66L1141 68.5L1142.5 66.5L1144.5 74.5L1148.5 80.5L1150.5 78L1156 89L1161 84.5L1163 89L1166.5 83.5H1168.5L1170.5 76L1172 80.5H1174.5V82.5H1177.5L1179.5 84.5L1183 79L1186 91.5L1188 88.5L1189.5 91.5L1193.5 94.5L1195.5 101.5L1197.5 100.5L1199 96L1200.5 100.5L1202 95.5L1204 94.5L1206 95.5L1207.5 90.5L1217 86.5L1218 90.5H1220.5L1224 87.5H1226L1231.5 74.5L1235 90L1238 94L1242.5 85.5L1243 89L1245.5 84.5L1247.5 87.5L1249.5 82L1252 87.5L1257 90L1258 95L1267.5 70L1268.5 74.5L1271 71L1272 73.5L1275.5 61.5L1278 63.5L1282 45L1286 50.5L1290.5 38.5L1294 35L1297.5 37L1300 33.5L1303.5 34.5L1305 38.5L1306.5 35L1309 38.5L1310.5 34.5L1315.5 36V38.5L1319.5 31L1322.5 41L1324.5 38.5H1326.5L1328.5 26L1335.5 18L1339 37L1341.5 33.5L1345 35L1347 33.5L1348.5 37L1350.5 34.5L1352 44L1354.5 42.5V44H1357.5L1359 48L1361 45L1367 46.5L1371.5 35L1380.5 45L1388 28L1389.5 29.5L1393 23L1394.5 25.5L1398.5 18L1400.5 19.5L1402.5 11L1405.5 21L1406.5 19L1409 21L1411.5 14L1417 30L1418 25.5H1420.5L1424 37L1427.5 29.5L1431 47L1432.5 45L1438.5 50.5L1441 44.5" stroke="#D3D6E3" stroke-linejoin="round"/>
<defs>
<linearGradient id="paint0_linear_2777_106871" x1="721.009" y1="11" x2="721.004" y2="142.944" gradientUnits="userSpaceOnUse">
<stop stop-color="#9A9EB5" stop-opacity="0.2"/>
<stop offset="1" stop-color="#F2F4FA" stop-opacity="0"/>
</linearGradient>
</defs>
</svg>
