<svg width="1440" height="962" viewBox="0 0 1440 962" fill="none" xmlns="http://www.w3.org/2000/svg">
<path opacity="0.3" d="M1393.04 738.064L1395.15 737.592C1384.11 687.54 1362.41 652.243 1332.48 635.551C1310.14 623.131 1283.21 621.268 1256.87 630.583C1243.24 635.69 1229.88 641.493 1216.84 647.971C1179.61 665.681 1141.01 683.963 1104.22 663.57C1072.11 645.809 1044.36 600.179 1017.5 556.063C988.06 507.651 957.58 457.598 921.217 444.483C881.701 430.25 842.881 461.871 805.351 492.498C769.286 521.933 731.955 552.362 694.474 541.458C644.435 526.926 605.391 444.011 567.638 363.828C528.271 280.441 487.813 194.446 434.596 185.503C408.732 181.206 383.042 196.433 358.221 211.188C331.488 227.06 303.862 243.48 276.608 234.637C259.233 228.998 242.603 213.175 226.494 197.899C210.385 182.622 193.755 166.824 176.157 160.862C143.889 149.908 107.997 172.239 75.1341 223.732C45.9443 269.462 22.5873 330.866 6.10352e-05 390.158L2.01056 390.928C24.5731 331.636 47.8803 270.331 76.946 224.8C109.214 174.226 144.212 152.218 175.462 162.701C192.613 168.513 209.094 184.137 225.104 199.265C241.387 214.715 258.216 230.687 276.037 236.524C304.21 245.69 332.282 229.072 359.437 212.877C383.911 198.321 409.253 183.268 434.348 187.466C486.472 196.11 526.732 281.683 565.702 364.449C603.653 445.054 642.921 528.392 693.904 543.296C732.476 554.523 770.229 523.697 806.766 493.914C843.799 463.684 882.123 432.436 920.497 446.272C956.165 459.139 986.422 508.843 1015.69 556.933C1042.67 601.297 1070.59 647.176 1103.21 665.234C1140.96 686.149 1180.03 667.718 1217.81 649.684C1230.74 643.251 1243.99 637.489 1257.52 632.421C1283.26 623.379 1309.47 625.118 1331.34 637.389C1360.8 653.833 1382.12 688.758 1393.04 738.064Z" fill="#D3D6E3"/>
<path opacity="0.3" d="M1437.88 667.592L1440 666.903C1415.77 594.87 1348.35 582.852 1297.98 594.487C1284.31 597.626 1270.36 601.963 1256.9 606.174C1218.65 618.115 1178.84 630.491 1140.87 616.686C1107.89 604.694 1079.38 573.946 1051.81 544.194C1021.54 511.533 990.227 477.851 952.893 468.921C912.473 459.352 872.665 480.658 834.157 501.276C797.027 521.153 758.647 541.719 719.961 534.447C668.498 524.623 628.41 468.717 589.622 414.673C549.329 358.537 507.659 300.385 453.086 294.439C426.615 291.556 400.297 301.814 374.821 311.739C347.305 322.482 318.845 333.582 290.666 327.56C272.814 323.758 255.677 313.092 239.127 302.783C222.576 292.475 205.516 281.809 187.46 277.803C154.308 270.479 117.662 285.458 83.9236 320.236C53.9082 351.111 29.8856 392.55 6.65369 432.509L8.59192 433.606C31.7473 393.647 55.6934 352.336 85.5303 321.64C118.682 287.524 154.742 272.674 186.976 279.844C204.649 283.773 221.582 294.337 237.979 304.544C254.377 314.75 271.973 325.722 290.232 329.626C319.024 335.776 347.815 324.523 375.637 313.704C400.858 303.855 426.921 293.699 452.831 296.532C506.384 302.375 547.824 360.068 587.836 415.847C626.854 470.248 667.198 526.511 719.553 536.488C759.004 544.016 797.741 523.271 835.203 503.317C873.455 482.904 912.753 461.802 952.383 471.166C989.054 479.842 1020.14 513.37 1050.18 545.776C1077.88 575.63 1106.62 606.607 1140.13 618.779C1178.79 632.838 1218.82 620.361 1257.43 608.292C1270.87 604.107 1284.77 599.769 1298.36 596.656C1347.94 585.25 1414.14 596.988 1437.88 667.592Z" fill="#D3D6E3"/>
<path d="M1276.09 494.61H1277.53V651.274H1276.09V494.61Z" fill="url(#paint0_linear_1107_8829)"/>
<g opacity="0.3">
<path d="M1276.09 346.987H1277.53V864.027H1276.09V346.987Z" fill="#D3D6E3"/>
<path d="M93.8495 40.8862H95.2892V672.587H93.8495V40.8862Z" fill="#D3D6E3"/>
<path d="M128.624 206.816H130.064V448.656H128.624V206.816Z" fill="#D3D6E3"/>
<path d="M163.399 147.747H164.839V485.494H163.399V147.747Z" fill="#D3D6E3"/>
<path d="M198.174 86.219H199.613V559.467H198.174V86.219Z" fill="#D3D6E3"/>
<path d="M232.923 219.161H234.362V519.375H232.923V219.161Z" fill="#D3D6E3"/>
<path d="M267.697 96.2542H269.137V621.616H267.697V96.2542Z" fill="#D3D6E3"/>
<path d="M302.472 273.561H303.912V429.927H302.472V273.561Z" fill="#D3D6E3"/>
<path d="M337.247 221.024H338.686V436.808H337.247V221.024Z" fill="#D3D6E3"/>
<path d="M372.022 103.234H373.461V534.776H372.022V103.234Z" fill="#D3D6E3"/>
<path d="M406.796 95.6084H408.236V495.877H406.796V95.6084Z" fill="#D3D6E3"/>
<path d="M441.571 82.1453H443.011V544.96H441.571V82.1453Z" fill="#D3D6E3"/>
<path d="M476.346 0H477.785V575.414H476.346V0Z" fill="#D3D6E3"/>
<path d="M511.095 66.5706H512.534V543.47H511.095V66.5706Z" fill="#D3D6E3"/>
<path d="M545.869 215.535H547.309V478.215H545.869V215.535Z" fill="#D3D6E3"/>
<path d="M580.644 134.582H582.084V519.226H580.644V134.582Z" fill="#D3D6E3"/>
<path d="M615.419 14.3076H616.858V689.776H615.419V14.3076Z" fill="#D3D6E3"/>
<path d="M650.139 66.5024H651.089V909.591H650.139V66.5024Z" fill="#D3D6E3"/>
<path d="M719.743 272.815H721.183V848.229H719.743V272.815Z" fill="#D3D6E3"/>
<path d="M754.518 192.906H755.957V868.374H754.518V192.906Z" fill="#D3D6E3"/>
<path d="M789.267 177.704H790.707V796.885H789.267V177.704Z" fill="#D3D6E3"/>
<path d="M824.041 161.906H825.481V837.374H824.041V161.906Z" fill="#D3D6E3"/>
<path d="M858.816 289.979H860.256V586.02H858.816V289.979Z" fill="#D3D6E3"/>
<path d="M893.591 148.467H895.03V780.168H893.591V148.467Z" fill="#D3D6E3"/>
<path d="M928.366 367.802H929.805V649.262H928.366V367.802Z" fill="#D3D6E3"/>
<path d="M963.14 265.165H964.58V803.045H963.14V265.165Z" fill="#D3D6E3"/>
<path d="M997.915 161.384H999.355V961.945H997.915V161.384Z" fill="#D3D6E3"/>
<path d="M1032.69 346.987H1034.13V864.027H1032.69V346.987Z" fill="#D3D6E3"/>
<path d="M1067.44 524.542H1068.88V716.354H1067.44V524.542Z" fill="#D3D6E3"/>
<path d="M1102.57 299.75H1103.52V698.008H1102.57V299.75Z" fill="#D3D6E3"/>
<path d="M1137 391.55H1138.43V783.497H1137V391.55Z" fill="#D3D6E3"/>
<path d="M1171.96 225.612H1172.91V888.107H1171.96V225.612Z" fill="#D3D6E3"/>
<path d="M1206.65 245.572H1208.08V957.493H1206.65V245.572Z" fill="#D3D6E3"/>
<path d="M1241.31 334.741H1242.75V851.781H1241.31V334.741Z" fill="#D3D6E3"/>
<path d="M684.968 250.857H686.408V686.77H684.968V250.857Z" fill="#D3D6E3"/>
</g>
<path d="M1102.21 404.715H1103.65V753.44H1102.21V404.715Z" fill="url(#paint1_linear_1107_8829)"/>
<g opacity="0.1">
<path opacity="0.5" d="M1269.58 527.175H1284.03V683.839H1269.58V527.175Z" fill="#D3D6E3"/>
<path d="M87.3463 261.016H101.792V452.432H87.3463V261.016Z" fill="#D3D6E3"/>
<path d="M156.896 265.438H171.342V367.778H156.896V265.438Z" fill="#D3D6E3"/>
<path d="M191.645 251.13H206.091V394.53H191.645V251.13Z" fill="#D3D6E3"/>
<path d="M261.194 279.323H275.64V438.521H261.194V279.323Z" fill="#D3D6E3"/>
<path d="M365.518 253.614H379.964V384.396H365.518V253.614Z" fill="#D3D6E3"/>
<path d="M400.293 235.109H414.739V356.401H400.293V235.109Z" fill="#D3D6E3"/>
<path d="M435.068 243.43H449.514V383.675H435.068V243.43Z" fill="#D3D6E3"/>
<path d="M469.818 200.531H484.263V374.907H469.818V200.531Z" fill="#D3D6E3"/>
<path d="M504.591 232.749H519.037V377.267H504.591V232.749Z" fill="#D3D6E3"/>
<path d="M574.141 268.617H588.587V385.166H574.141V268.617Z" fill="#D3D6E3"/>
<path d="M608.916 249.689H623.362V454.369H608.916V249.689Z" fill="#D3D6E3"/>
<path d="M643.69 241.418H658.136V552.238H643.69V241.418Z" fill="#D3D6E3"/>
<path d="M678.465 283.397H692.911V719.31H678.465V283.397Z" fill="#D3D6E3"/>
<path d="M713.24 473.322H727.686V647.697H713.24V473.322Z" fill="#D3D6E3"/>
<path d="M747.989 428.312H762.435V632.992H747.989V428.312Z" fill="#D3D6E3"/>
<path d="M782.764 393.462H797.21V581.102H782.764V393.462Z" fill="#D3D6E3"/>
<path d="M817.538 397.287H831.984V601.967H817.538V397.287Z" fill="#D3D6E3"/>
<path d="M887.088 368.598H901.534V560.013H887.088V368.598Z" fill="#D3D6E3"/>
<path d="M956.637 452.605H971.083V615.604H956.637V452.605Z" fill="#D3D6E3"/>
<path d="M991.412 440.36H1005.86V682.945H991.412V440.36Z" fill="#D3D6E3"/>
<path d="M1026.16 527.175H1040.61V683.839H1026.16V527.175Z" fill="#D3D6E3"/>
<path d="M1095.71 437.255H1110.16V785.98H1095.71V437.255Z" fill="#D3D6E3"/>
<path d="M1130.48 528.119H1144.93V646.878H1130.48V528.119Z" fill="#D3D6E3"/>
<path d="M1165.26 498.981H1179.71V736.524H1165.26V498.981Z" fill="#D3D6E3"/>
<path d="M1200.03 521.834H1214.48V761.911H1200.03V521.834Z" fill="#D3D6E3"/>
<path d="M1234.81 514.904H1249.25V671.568H1234.81V514.904Z" fill="#D3D6E3"/>
<path d="M122.121 284.068H136.567V306.274H122.121V284.068Z" fill="#D3D6E3"/>
<path d="M226.419 322.942H240.865V350.514H226.419V322.942Z" fill="#D3D6E3"/>
<path d="M295.969 312.012H310.415V326.37H295.969V312.012Z" fill="#D3D6E3"/>
<path d="M330.744 286.477H345.19V306.299H330.744V286.477Z" fill="#D3D6E3"/>
<path d="M539.366 302.25H553.812V326.37H539.366V302.25Z" fill="#D3D6E3"/>
<path d="M852.313 391.848H866.759V419.022H852.313V391.848Z" fill="#D3D6E3"/>
<path d="M921.862 463.063H936.308V488.897H921.862V463.063Z" fill="#D3D6E3"/>
<path d="M1060.94 579.09H1075.38V596.701H1060.94V579.09Z" fill="#D3D6E3"/>
</g>
<g opacity="0.2">
<path d="M122.121 291.073H136.567V364.35H122.121V291.073Z" fill="#D3D6E3"/>
<path d="M226.419 323.786H240.865V414.75H226.419V323.786Z" fill="#D3D6E3"/>
<path d="M295.969 328.059H310.415V375.428H295.969V328.059Z" fill="#D3D6E3"/>
<path d="M330.744 296.214H345.19V361.593H330.744V296.214Z" fill="#D3D6E3"/>
<path d="M539.366 307.069H553.812V386.681H539.366V307.069Z" fill="#D3D6E3"/>
<path d="M852.313 393.139H866.759V482.86H852.313V393.139Z" fill="#D3D6E3"/>
<path d="M921.862 465.895H936.308V551.17H921.862V465.895Z" fill="#D3D6E3"/>
<path d="M1060.94 591.385H1075.38V649.511H1060.94V591.385Z" fill="#D3D6E3"/>
<path d="M1269.58 549.208H1284.03V596.676H1269.58V549.208Z" fill="#D3D6E3"/>
<path d="M52.5715 332.133H67.0175V413.682H52.5715V332.133Z" fill="#D3D6E3"/>
<path d="M87.3463 295.171H101.792V353.172H87.3463V295.171Z" fill="#D3D6E3"/>
<path d="M156.896 268.568H171.342V299.593H156.896V268.568Z" fill="#D3D6E3"/>
<path d="M191.645 268.568H206.091V312.037H191.645V268.568Z" fill="#D3D6E3"/>
<path d="M261.194 302.25H275.64V350.489H261.194V302.25Z" fill="#D3D6E3"/>
<path d="M365.518 266.655H379.964V306.274H365.518V266.655Z" fill="#D3D6E3"/>
<path d="M400.293 244.821H414.739V281.584H400.293V244.821Z" fill="#D3D6E3"/>
<path d="M435.068 259.75H449.514V302.25H435.068V259.75Z" fill="#D3D6E3"/>
<path d="M469.818 228.75H484.263V281.584H469.818V228.75Z" fill="#D3D6E3"/>
<path d="M504.591 250.559H519.037V294.351H504.591V250.559Z" fill="#D3D6E3"/>
<path d="M574.141 276.69H588.587V312.013H574.141V276.69Z" fill="#D3D6E3"/>
<path d="M608.916 288.464H623.362V350.489H608.916V288.464Z" fill="#D3D6E3"/>
<path d="M643.69 317.204H658.136V411.397H643.69V317.204Z" fill="#D3D6E3"/>
<path d="M678.465 402.777H692.911V534.875H678.465V402.777Z" fill="#D3D6E3"/>
<path d="M713.24 501.54H727.686V554.374H713.24V501.54Z" fill="#D3D6E3"/>
<path d="M747.989 467.087H762.435V529.112H747.989V467.087Z" fill="#D3D6E3"/>
<path d="M782.764 426.3H797.21V483.159H782.764V426.3Z" fill="#D3D6E3"/>
<path d="M817.538 436.087H831.984V498.112H817.538V436.087Z" fill="#D3D6E3"/>
<path d="M887.088 402.777H901.534V460.778H887.088V402.777Z" fill="#D3D6E3"/>
<path d="M956.637 476.849H971.083V526.231H956.637V476.849Z" fill="#D3D6E3"/>
<path d="M991.412 492.349H1005.86V565.85H991.412V492.349Z" fill="#D3D6E3"/>
<path d="M1026.16 549.208H1040.61V596.676H1026.16V549.208Z" fill="#D3D6E3"/>
<path d="M1095.71 526.256H1110.16V631.924H1095.71V526.256Z" fill="#D3D6E3"/>
<path d="M1130.48 536.962H1144.93V572.954H1130.48V536.962Z" fill="#D3D6E3"/>
<path d="M1165.26 549.208H1179.71V621.193H1165.26V549.208Z" fill="#D3D6E3"/>
<path d="M1200.03 572.954H1214.48V645.71H1200.03V572.954Z" fill="#D3D6E3"/>
<path d="M1234.81 536.962H1249.25V584.43H1234.81V536.962Z" fill="#D3D6E3"/>
</g>
<defs>
<linearGradient id="paint0_linear_1107_8829" x1="1276.81" y1="494.61" x2="1276.81" y2="651.274" gradientUnits="userSpaceOnUse">
<stop stop-color="#BFC3C8" stop-opacity="0.23"/>
<stop offset="1" stop-color="#CCD9E0" stop-opacity="0"/>
</linearGradient>
<linearGradient id="paint1_linear_1107_8829" x1="1102.93" y1="404.715" x2="1102.93" y2="753.44" gradientUnits="userSpaceOnUse">
<stop stop-color="#BFC3C8" stop-opacity="0.23"/>
<stop offset="1" stop-color="#CCD9E0" stop-opacity="0"/>
</linearGradient>
</defs>
</svg>
