<svg width="129" height="86" viewBox="0 0 129 86" fill="none" xmlns="http://www.w3.org/2000/svg">
<path d="M0.5 14.5556C0.5 6.71115 6.87778 0.333374 14.7222 0.333374H71.6111C79.4556 0.333374 85.8333 6.71115 85.8333 14.5556V71.4445C85.8333 79.2889 79.4556 85.6667 71.6111 85.6667H14.7222C6.87778 85.6667 0.5 79.2889 0.5 71.4445V14.5556ZM124.744 8.28893C127.056 9.53337 128.5 11.9334 128.5 14.5556V71.4445C128.5 74.0667 127.056 76.4667 124.744 77.7112C122.433 78.9556 119.633 78.8223 117.433 77.3556L96.1 63.1334L92.9444 61.0223V57.2223V28.7778V24.9778L96.1 22.8667L117.433 8.64449C119.611 7.20004 122.411 7.04449 124.744 8.28893Z" fill="#686D87"/>
</svg>
